<svg xmlns="http://www.w3.org/2000/svg" version="1.1" xmlns:xlink="http://www.w3.org/1999/xlink" xmlns:svgjs="http://svgjs.dev/svgjs" width="395.52" viewBox="3.6500000953674316 -37.150001525878906 332.4700012207031 37.45000076293945" height="44.54804210526315" data-palette-color="#ffffff">
                      <path d="M17.9 0L3.65 0 3.65-36.85 17.35-36.85Q22.3-36.85 24.73-34.45 27.15-32.05 27.15-27.35L27.15-27.35Q27.15-25.05 26.48-23.38 25.8-21.7 24.63-20.63 23.45-19.55 22-19.15L22-19.15Q23.05-18.85 24.18-18.25 25.3-17.65 26.28-16.57 27.25-15.5 27.85-13.93 28.45-12.35 28.45-10.2L28.45-10.2Q28.45-6.35 27.18-4.13 25.9-1.9 23.55-0.95 21.2 0 17.9 0L17.9 0ZM8.7-16.95L8.7-4.5 17.75-4.5Q19.55-4.5 20.85-5.1 22.15-5.7 22.9-7.1 23.65-8.5 23.65-11.05L23.65-11.05Q23.65-12.9 22.85-14.23 22.05-15.55 20.73-16.25 19.4-16.95 17.75-16.95L17.75-16.95 8.7-16.95ZM8.7-32.35L8.7-20.85 17.5-20.85Q19.65-20.85 20.98-22.43 22.3-24 22.35-26.55L22.35-26.55Q22.45-29.8 21-31.08 19.55-32.35 17.3-32.35L17.3-32.35 8.7-32.35ZM47.8 0.3L47.8 0.3Q44.2 0.3 41.47-0.4 38.75-1.1 36.92-3 35.1-4.9 34.2-8.6 33.3-12.3 33.3-18.3L33.3-18.3Q33.3-24.3 34.2-28.03 35.1-31.75 36.95-33.73 38.8-35.7 41.5-36.43 44.2-37.15 47.8-37.15L47.8-37.15Q51.5-37.15 54.22-36.43 56.95-35.7 58.75-33.73 60.55-31.75 61.45-28.03 62.35-24.3 62.35-18.3L62.35-18.3Q62.35-12.3 61.45-8.6 60.55-4.9 58.72-3 56.9-1.1 54.17-0.4 51.45 0.3 47.8 0.3ZM47.8-4.2L47.8-4.2Q50.4-4.2 52.22-4.75 54.05-5.3 55.17-6.78 56.3-8.25 56.8-11.03 57.3-13.8 57.3-18.3L57.3-18.3Q57.3-23.05 56.77-25.9 56.25-28.75 55.15-30.2 54.05-31.65 52.22-32.15 50.4-32.65 47.8-32.65L47.8-32.65Q45.35-32.65 43.55-32.15 41.75-31.65 40.6-30.2 39.45-28.75 38.87-25.9 38.3-23.05 38.3-18.3L38.3-18.3Q38.3-13.8 38.77-11.03 39.25-8.25 40.37-6.78 41.5-5.3 43.32-4.75 45.15-4.2 47.8-4.2ZM71.2 0L66 0 78.3-36.85 84.7-36.85 97 0 91.75 0 88.5-9.65 74.4-9.65 71.2 0ZM81.45-32.45L75.59-14.2 87.25-14.2 81.45-32.45ZM126.04 0.3L126.04 0.3Q124.84 0.3 123.31 0.23 121.79 0.15 120.21 0 118.64-0.15 117.21-0.3 115.79-0.45 114.79-0.7L114.79-0.7 114.79-4.6Q116.09-4.5 117.91-4.4 119.74-4.3 121.81-4.25 123.89-4.2 125.84-4.2L125.84-4.2Q127.99-4.2 129.66-4.6 131.34-5 132.31-6.1 133.29-7.2 133.29-9.2L133.29-9.2 133.29-11.35Q133.29-13.6 132.06-14.8 130.84-16 128.34-16L128.34-16 124.59-16Q119.79-16 117.16-18.1 114.54-20.2 114.54-25.3L114.54-25.3 114.54-27.3Q114.54-32.6 117.41-34.88 120.29-37.15 125.59-37.15L125.59-37.15Q127.34-37.15 129.34-36.98 131.34-36.8 133.24-36.55 135.14-36.3 136.39-36.05L136.39-36.05 136.39-32.15Q134.14-32.3 131.37-32.48 128.59-32.65 126.14-32.65L126.14-32.65Q124.04-32.65 122.52-32.18 120.99-31.7 120.16-30.5 119.34-29.3 119.34-27.1L119.34-27.1 119.34-25.6Q119.34-22.9 120.79-21.85 122.24-20.8 124.84-20.8L124.84-20.8 128.89-20.8Q132.04-20.8 134.06-19.65 136.09-18.5 137.09-16.5 138.09-14.5 138.09-11.95L138.09-11.95 138.09-9.35Q138.09-5.45 136.49-3.35 134.89-1.25 132.19-0.48 129.49 0.3 126.04 0.3ZM149.54 0L144.49 0 144.49-36.85 149.54-36.85 149.54-20.3 166.59-20.3 166.59-36.85 171.59-36.85 171.59 0 166.59 0 166.59-15.8 149.54-15.8 149.54 0ZM192.49 0.3L192.49 0.3Q188.89 0.3 186.16-0.4 183.44-1.1 181.61-3 179.79-4.9 178.89-8.6 177.99-12.3 177.99-18.3L177.99-18.3Q177.99-24.3 178.89-28.03 179.79-31.75 181.64-33.73 183.49-35.7 186.19-36.43 188.89-37.15 192.49-37.15L192.49-37.15Q196.19-37.15 198.91-36.43 201.64-35.7 203.44-33.73 205.24-31.75 206.14-28.03 207.04-24.3 207.04-18.3L207.04-18.3Q207.04-12.3 206.14-8.6 205.24-4.9 203.41-3 201.59-1.1 198.86-0.4 196.14 0.3 192.49 0.3ZM192.49-4.2L192.49-4.2Q195.09-4.2 196.91-4.75 198.74-5.3 199.86-6.78 200.99-8.25 201.49-11.03 201.99-13.8 201.99-18.3L201.99-18.3Q201.99-23.05 201.46-25.9 200.94-28.75 199.84-30.2 198.74-31.65 196.91-32.15 195.09-32.65 192.49-32.65L192.49-32.65Q190.04-32.65 188.24-32.15 186.44-31.65 185.29-30.2 184.14-28.75 183.56-25.9 182.99-23.05 182.99-18.3L182.99-18.3Q182.99-13.8 183.46-11.03 183.94-8.25 185.06-6.78 186.19-5.3 188.01-4.75 189.84-4.2 192.49-4.2ZM218.43 0L213.38 0 213.38-36.85 228.33-36.85Q229.98-36.85 231.73-36.43 233.48-36 234.96-34.77 236.43-33.55 237.33-31.15 238.23-28.75 238.23-24.8L238.23-24.8Q238.23-20.85 237.31-18.4 236.38-15.95 234.88-14.65 233.38-13.35 231.63-12.9 229.88-12.45 228.28-12.45L228.28-12.45Q227.48-12.45 226.11-12.5 224.73-12.55 223.23-12.65 221.73-12.75 220.43-12.85 219.13-12.95 218.43-13.05L218.43-13.05 218.43 0ZM218.43-32.35L218.43-16.95 227.58-16.95Q229.18-16.95 230.46-17.68 231.73-18.4 232.46-20.08 233.18-21.75 233.18-24.75L233.18-24.75Q233.18-27.7 232.46-29.35 231.73-31 230.53-31.68 229.33-32.35 227.88-32.35L227.88-32.35 218.43-32.35ZM265.58 0L251.63 0Q249.28 0 247.5-0.73 245.73-1.45 244.78-3.18 243.83-4.9 243.83-7.8L243.83-7.8 243.83-36.85 248.88-36.85 248.88-8.55Q248.88-6.95 249.43-6.08 249.98-5.2 250.88-4.9 251.78-4.6 252.83-4.6L252.83-4.6 265.58-4.6 265.58 0ZM275.53 0L270.48 0 270.48-36.85 275.53-36.85 275.53 0ZM293.48 0.3L293.48 0.3Q292.28 0.3 290.75 0.23 289.23 0.15 287.65 0 286.07-0.15 284.65-0.3 283.23-0.45 282.23-0.7L282.23-0.7 282.23-4.6Q283.53-4.5 285.35-4.4 287.18-4.3 289.25-4.25 291.32-4.2 293.28-4.2L293.28-4.2Q295.43-4.2 297.1-4.6 298.78-5 299.75-6.1 300.73-7.2 300.73-9.2L300.73-9.2 300.73-11.35Q300.73-13.6 299.5-14.8 298.28-16 295.78-16L295.78-16 292.03-16Q287.23-16 284.6-18.1 281.98-20.2 281.98-25.3L281.98-25.3 281.98-27.3Q281.98-32.6 284.85-34.88 287.73-37.15 293.03-37.15L293.03-37.15Q294.78-37.15 296.78-36.98 298.78-36.8 300.68-36.55 302.57-36.3 303.82-36.05L303.82-36.05 303.82-32.15Q301.57-32.3 298.8-32.48 296.03-32.65 293.57-32.65L293.57-32.65Q291.48-32.65 289.95-32.18 288.43-31.7 287.6-30.5 286.78-29.3 286.78-27.1L286.78-27.1 286.78-25.6Q286.78-22.9 288.23-21.85 289.68-20.8 292.28-20.8L292.28-20.8 296.32-20.8Q299.48-20.8 301.5-19.65 303.53-18.5 304.53-16.5 305.53-14.5 305.53-11.95L305.53-11.95 305.53-9.35Q305.53-5.45 303.93-3.35 302.32-1.25 299.63-0.48 296.93 0.3 293.48 0.3ZM325.12 0L320.07 0 320.07-32.35 309.07-32.35 309.07-36.85 336.12-36.85 336.12-32.35 325.12-32.35 325.12 0Z" opacity="1" transform="matrix(1,0,0,1,0,0)" fill="#ffffff" class="undefined-text-0" data-fill-palette-color="primary" id="text-0"></path></svg>