<svg xmlns="http://www.w3.org/2000/svg" width="60" height="60" viewBox="0 0 60 60">
  <g id="Group_1878" data-name="Group 1878" transform="translate(-619.503 -1547.503)">
    <circle id="Ellipse_246" data-name="Ellipse 246" cx="30" cy="30" r="30" transform="translate(619.503 1547.503)" fill="#08404d"/>
    <g id="Group_2" data-name="Group 2" transform="translate(634.049 1558.498)">
      <path id="Path_2" data-name="Path 2" d="M245.077,266.7l-5.818-.156.48-.737L238.4,264l6.7,1.161,3.651-.949Z" transform="translate(-228.987 -248.685)" fill="#8ab463"/>
      <path id="Path_3" data-name="Path 3" d="M215.372,205.838,205.3,204.676l2.2,2.713,7.95.491,7.068-4.277Z" transform="translate(-199.583 -195.029)" fill="#8ab463"/>
      <path id="Path_4" data-name="Path 4" d="M176.834,142.47l8.174-13.79-9.3,12.74-1.653,2.512,4.991,9.882-6.655,6.465-2.367,1.038-2.244-.748-1.228-1.228H170.1l1.083-.837-1.083.112h-4.277l-4.053-4.053h8.33l1.9-1.507-1.9.167h-9.033l1.686-3.45h7.392l2.546-1.988-2.546.5H163.48l2.244-4.612-7.883-11.836,11.925,2.981.38.1.234-.145,9.592-5.862-10.027,3.674L155.127,126.8l-.949,2.222-.022.011.011.011-.067.134.1-.067,9.781,14.672-4.947,10.172,10.853,10.853,11-10.686-5.081-10.094Z" transform="translate(-154.1 -126.804)" fill="#fff"/>
    </g>
  </g>
</svg>
