<svg class="animated" id="freepik_stories-loading" xmlns="http://www.w3.org/2000/svg" viewBox="0 0 500 500" version="1.1"><style>@keyframes slideRight{0%{opacity:0;transform:translateX(30px)}to{opacity:1;transform:translateX(0)}}@keyframes rotateCenter{0%{transform:rotate(0)}to{transform:rotate(360deg)}}svg#freepik_stories-loading:not(.animated) .animable{opacity:0}</style><g id="freepik--background-complete--inject-30" style="transform-origin:250px 228.23px 0" class="animable"><path style="fill:#ebebeb;transform-origin:250px 382.525px 0" id="elhenkjxllf9c" class="animable" d="M0 382.4h500v.25H0z"/><path style="fill:#ebebeb;transform-origin:427.33px 392.045px 0" id="eld316jqfueoq" class="animable" d="M410.77 391.92h33.12v.25h-33.12z"/><path style="fill:#ebebeb;transform-origin:156.4px 395.435px 0" id="elnnn2iu1gvg" class="animable" d="M131.47 395.31h49.86v.25h-49.86z"/><path style="fill:#ebebeb;transform-origin:395.005px 401.335px 0" id="elghjvymuxl7" class="animable" d="M380.24 401.21h29.53v.25h-29.53z"/><path style="fill:#ebebeb;transform-origin:63.26px 399.655px 0" id="el307jdu2ya6u" class="animable" d="M52.46 399.53h21.6v.25h-21.6z"/><path style="fill:#ebebeb;transform-origin:102.145px 399.655px 0" id="elva36voneym" class="animable" d="M82.96 399.53h38.37v.25H82.96z"/><path style="fill:#ebebeb;transform-origin:284.38px 389.335px 0" id="elyvjrsd2g3s" class="animable" d="M237.54 389.21h93.68v.25h-93.68z"/><path d="M237 337.8H43.91a5.71 5.71 0 0 1-5.7-5.71V60.66a5.71 5.71 0 0 1 5.7-5.66H237a5.71 5.71 0 0 1 5.71 5.71v271.38a5.71 5.71 0 0 1-5.71 5.71ZM43.91 55.2a5.46 5.46 0 0 0-5.45 5.46v271.43a5.46 5.46 0 0 0 5.45 5.46H237a5.47 5.47 0 0 0 5.46-5.46V60.66A5.47 5.47 0 0 0 237 55.2Z" style="fill:#ebebeb;transform-origin:140.46px 196.4px 0" id="elxpv2qnpcs1q" class="animable"/><path d="M453.31 337.8h-193.1a5.72 5.72 0 0 1-5.71-5.71V60.66a5.72 5.72 0 0 1 5.71-5.66h193.1a5.71 5.71 0 0 1 5.69 5.66v271.43a5.71 5.71 0 0 1-5.69 5.71ZM260.21 55.2a5.47 5.47 0 0 0-5.46 5.46v271.43a5.47 5.47 0 0 0 5.46 5.46h193.1a5.47 5.47 0 0 0 5.46-5.46V60.66a5.47 5.47 0 0 0-5.46-5.46Z" style="fill:#ebebeb;transform-origin:356.75px 196.4px 0" id="elij64lq9zpi" class="animable"/><path style="fill:#f0f0f0;transform-origin:139.455px 294.915px 0;transform:rotate(180deg)" class="animable" d="M132.95 213.1h13.01v163.63h-13.01z" id="eljc1xpm0s8xg"/><path style="fill:#f0f0f0;transform-origin:106.485px 379.565px 0;transform:rotate(180deg)" class="animable" d="M70.44 376.74h72.09v5.65H70.44z" id="elxbctfbuki5"/><path style="fill:#fafafa;transform-origin:99.98px 294.915px 0" id="elwzgr46733i" class="animable" d="M67.01 213.1h65.94v163.63H67.01z"/><path style="fill:#f0f0f0;transform-origin:99.98px 312.92px 0" id="elejb5pumgvcq" class="animable" d="M74.04 298.31h51.88v29.22H74.04z"/><path style="fill:#f0f0f0;transform-origin:99.98px 351.16px 0" id="elj6q0hl2zojp" class="animable" d="M74.04 336.55h51.88v29.22H74.04z"/><rect x="91.15" y="297.55" width="17.66" height="4.01" rx="1.58" style="fill:#fafafa;transform-origin:99.98px 299.555px 0;transform:rotate(180deg)" class="animable" id="el165ct3stmxl"/><rect x="91.15" y="335.79" width="17.66" height="4.01" rx="1.58" style="fill:#fafafa;transform-origin:99.98px 337.795px 0;transform:rotate(180deg)" class="animable" id="el8h8dwhtvgh2"/><path style="fill:#f0f0f0;transform-origin:99.98px 236.74px 0" id="el77wsrk1d6ii" class="animable" d="M74.04 222.13h51.88v29.22H74.04z"/><path style="fill:#f0f0f0;transform-origin:99.98px 274.68px 0" id="elkrufenb51l" class="animable" d="M74.04 260.07h51.88v29.22H74.04z"/><rect x="91.15" y="221.37" width="17.66" height="4.01" rx="1.58" style="fill:#fafafa;transform-origin:99.98px 223.375px 0;transform:rotate(180deg)" class="animable" id="elafqd44wy8o8"/><rect x="91.15" y="259.31" width="17.66" height="4.01" rx="1.58" style="fill:#fafafa;transform-origin:99.98px 261.315px 0;transform:rotate(180deg)" class="animable" id="el17oynqx3h4a"/><path style="fill:#f0f0f0;transform-origin:215.875px 294.915px 0;transform:rotate(180deg)" class="animable" d="M205.11 213.1h21.53v163.63h-21.53z" id="el94dngrvz4sq"/><path style="fill:#f0f0f0;transform-origin:182.62px 379.565px 0;transform:rotate(180deg)" class="animable" d="M142.6 376.74h80.04v5.65H142.6z" id="el8ox8iz8fg4"/><path style="fill:#fafafa;transform-origin:172.14px 294.915px 0" id="elo5a82obrxz" class="animable" d="M139.17 213.1h65.94v163.63h-65.94z"/><path style="fill:#f0f0f0;transform-origin:172.14px 312.92px 0" id="elktjvna2u4nq" class="animable" d="M146.2 298.31h51.88v29.22H146.2z"/><path style="fill:#f0f0f0;transform-origin:172.14px 351.16px 0" id="elr7bl52j8m" class="animable" d="M146.2 336.55h51.88v29.22H146.2z"/><rect x="163.31" y="297.55" width="17.66" height="4.01" rx="1.58" style="fill:#fafafa;transform-origin:172.14px 299.555px 0;transform:rotate(180deg)" class="animable" id="eln6a4udfjg1"/><rect x="163.31" y="335.79" width="17.66" height="4.01" rx="1.58" style="fill:#fafafa;transform-origin:172.14px 337.795px 0;transform:rotate(180deg)" class="animable" id="elngpixei8ywm"/><path style="fill:#f0f0f0;transform-origin:172.14px 236.74px 0" id="el6y0oiq40nue" class="animable" d="M146.2 222.13h51.88v29.22H146.2z"/><path style="fill:#f0f0f0;transform-origin:172.14px 274.68px 0" id="elkdu6fgpyfgd" class="animable" d="M146.2 260.07h51.88v29.22H146.2z"/><rect x="163.31" y="221.37" width="17.66" height="4.01" rx="1.58" style="fill:#fafafa;transform-origin:172.14px 223.375px 0;transform:rotate(180deg)" class="animable" id="elp1over7c30d"/><rect x="163.31" y="259.31" width="17.66" height="4.01" rx="1.58" style="fill:#fafafa;transform-origin:172.14px 261.315px 0;transform:rotate(180deg)" class="animable" id="elntcl8j05a2r"/><path style="fill:#e6e6e6;transform-origin:149.595px 125.44px 0;transform:rotate(180deg)" class="animable" d="M65.01 90.11h169.17v70.66H65.01z" id="elxc05g9dme2s"/><path style="fill:#f0f0f0;transform-origin:144.995px 125.44px 0;transform:rotate(180deg)" class="animable" d="M57.74 90.11h174.51v70.66H57.74z" id="el5jkdpw60ll5"/><path style="fill:#fafafa;transform-origin:144.99px 125.445px 0;transform:rotate(90deg)" class="animable" d="M118.88 47.41h52.22v156.07h-52.22z" id="el2cypfj8ekev"/><path style="fill:#fff;transform-origin:128.385px 125.445px 0" id="elqsknx5km17" class="animable" d="m146.59 151.56-15.5-52.23h-20.91l15.5 52.23h20.91z"/><path style="fill:#fff;transform-origin:185.655px 125.445px 0" id="elzzv3fbp2c5k" class="animable" d="m203.86 151.56-15.5-52.23h-20.91l15.5 52.23h20.91z"/><path style="fill:#fff;transform-origin:103.525px 125.445px 0" id="eldvvb61a5qii" class="animable" d="m121.73 151.56-15.5-52.23H85.32l15.5 52.23h20.91z"/><path style="fill:#ebebeb;transform-origin:336.09px 144.265px 0" id="elia3io5ebhci" class="animable" d="M289.48 70.88h93.22v146.77h-93.22z"/><path style="fill:#fafafa;transform-origin:336.09px 144.27px 0;transform:rotate(90deg)" class="animable" d="M269.3 104.26h133.58v80.02H269.3z" id="elnqdw9bp5c4p"/><path style="fill:#e0e0e0;transform-origin:336.09px 144.205px 0" id="elo1ce6luhwjf" class="animable" d="M333.61 211.06h-2.69l7.65-133.71h2.69l-7.65 133.71z"/><path style="fill:#e0e0e0;transform-origin:357.36px 105.56px 0" id="elekhvpbrup39" class="animable" d="M338.62 107.32v3.86l37.48-9.88v-1.36l-37.48 7.38z"/><path style="fill:#e0e0e0;transform-origin:356.095px 146.4px 0" id="el925vxtzq56g" class="animable" d="M336.09 151.14V155l40.01-15.84v-1.36l-40.01 13.34z"/><path style="fill:#e0e0e0;transform-origin:354.365px 188.995px 0" id="el6lkji4uszqe" class="animable" d="M332.63 196.38v5.32l43.47-24.05v-1.36l-43.47 20.09z"/><path style="fill:#e0e0e0;transform-origin:317.085px 122.33px 0" id="elx8hd00v36i" class="animable" d="M337.09 127.07v3.86l-40.01-15.84v-1.36l40.01 13.34z"/><path style="fill:#e0e0e0;transform-origin:315.465px 168.455px 0" id="elfr9kuilmsc" class="animable" d="M333.85 173.63v5.32l-36.77-19.63v-1.36l36.77 15.67z"/><path style="fill:#e0e0e0;transform-origin:296.58px 144.265px 0;transform:rotate(90deg)" class="animable" d="M229.79 143.77h133.58v.99H229.79z" id="el5vw0rbqkbp4"/><path style="fill:#e0e0e0;transform-origin:384.235px 144.265px 0;transform:rotate(180deg)" class="animable" d="M382.7 70.88h3.07v146.77h-3.07z" id="elugu35b8buh"/><path d="M419.35 206.88c0-6.09 2.36-15.21 2.36-15.21H403s2.37 9.12 2.37 15.21-7.4 17-7.4 25.72 7.46 19.57 7.46 19.57h13.84s7.46-10.86 7.46-19.57-7.38-19.6-7.38-25.72Z" style="fill:#e0e0e0;transform-origin:412.35px 221.92px 0" id="elbbn81jui5l9" class="animable"/><path d="M431.34 215.42c0-4.94.9-12.35.9-12.35h-7.09s.9 7.41.9 12.35-2.8 13.8-2.8 20.87 2.82 15.88 2.82 15.88h5.25s2.82-8.81 2.82-15.88-2.8-15.94-2.8-20.87Z" style="fill:#f0f0f0;transform-origin:428.695px 227.62px 0" id="elv0hjpbz74f" class="animable"/><path style="fill:#e6e6e6;transform-origin:263.665px 317.285px 0;transform:rotate(180deg)" class="animable" d="M258.35 252.17h10.63V382.4h-10.63z" id="elf612d7fp04c"/><path style="fill:#f0f0f0;transform-origin:258.64px 317.285px 0;transform:rotate(180deg)" class="animable" d="M255.51 252.17h6.26V382.4h-6.26z" id="el23dnsbmt4lt"/><path style="fill:#f0f0f0;transform-origin:329.05px 255.505px 0" id="eljvwvcc4k73o" class="animable" d="M253.57 252.17h150.96v6.67H253.57z"/><path style="fill:#e6e6e6;transform-origin:461.095px 317.285px 0;transform:rotate(180deg)" class="animable" d="M455.78 252.17h10.63V382.4h-10.63z" id="eldmq68uvb195"/><path style="fill:#f0f0f0;transform-origin:456.92px 317.285px 0;transform:rotate(180deg)" class="animable" d="M453.79 252.17h6.26V382.4h-6.26z" id="elq3slfru1ryp"/><path style="fill:#e6e6e6;transform-origin:438.695px 255.505px 0" id="eloikmxb5n4vn" class="animable" d="M409.08 252.17h59.23v6.67h-59.23z"/><path style="fill:#e6e6e6;transform-origin:410.745px 317.285px 0;transform:rotate(180deg)" class="animable" d="M405.43 252.17h10.63V382.4h-10.63z" id="eliwd210e6f6f"/><path style="fill:#f0f0f0;transform-origin:405.72px 317.285px 0;transform:rotate(180deg)" class="animable" d="M402.59 252.17h6.26V382.4h-6.26z" id="elonzwu276x8s"/><path style="fill:#fafafa;transform-origin:329.05px 273.695px 0" id="ela0btqhen6f" class="animable" d="m257.36 252.17 71.69 43.05 71.69-43.05H257.36z"/><path style="fill:#ebebeb;transform-origin:329.05px 271.685px 0" id="elz80m9324klc" class="animable" d="m264.05 252.17 65 39.03 65-39.03h-130z"/><path style="fill:#fafafa;transform-origin:439.965px 271.685px 0" id="eljescj9g1gpg" class="animable" d="m414.19 252.17 25.77 39.03 25.78-39.03h-51.55z"/><path style="fill:#ebebeb;transform-origin:440.63px 269.68px 0" id="eluemyp8vawmn" class="animable" d="m417.26 252.17 23.37 35.02L464 252.17h-46.74z"/></g><g id="freepik--Shadow--inject-30" style="transform-origin:250px 416.24px 0;animation:1s 1 forwards cubic-bezier(.36,-.01,.5,1.38) slideRight;animation-delay:0s" class="animable"><ellipse id="freepik--path--inject-30" cx="250" cy="416.24" rx="193.89" ry="11.32" style="fill:#f5f5f5;transform-origin:250px 416.24px 0" class="animable"/></g><g id="freepik--Character--inject-30" style="transform-origin:222.368px 250.5px 0;animation:1.5s 1 forwards ease-in slideRight;animation-delay:0s,1.5s" class="animable animator-active"><path style="fill:#ffb573;transform-origin:199.745px 396.04px 0" id="elrq6vpu5rcm" class="animable" d="m201.78 407.02-8.04-2.64 3.97-19.32 8.04 2.64-3.97 19.32z"/><path style="fill:#ffb573;transform-origin:266.425px 397.325px 0" id="el40neykytl6v" class="animable" d="M271.71 407.12h-8.47l-2.1-19.59h8.46l2.11 19.59z"/><path d="M262.55 406.14h10.31a.75.75 0 0 1 .73.58l1.67 7.52a1.25 1.25 0 0 1-1.24 1.51c-3.32-.06-5.74-.25-9.92-.25-2.58 0-10.33.26-13.88.26s-4-3.51-2.57-3.83c6.52-1.42 11.44-3.39 13.52-5.27a2.11 2.11 0 0 1 1.38-.52Z" style="fill:#263238;transform-origin:261.089px 410.95px 0" id="elmx578tox2ph" class="animable"/><path d="m193.88 403.11 8.91 2.45a.75.75 0 0 1 .54.75l-.39 7.7a1.23 1.23 0 0 1-1.57 1.13c-3.2-.94-7.79-2.41-11.83-3.53-4.72-1.3-5.6-1.75-11.14-3.27-3.35-.93-3.35-4.57-1.86-4.49 6.77.36 8.75 1.23 15.2-.65a3.9 3.9 0 0 1 2.14-.09Z" style="fill:#263238;transform-origin:189.458px 409.095px 0" id="el5586ppc47g4" class="animable"/><path d="M235.56 150c-.54.7-.95 1.22-1.43 1.81s-.94 1.11-1.42 1.66c-1 1.09-2 2.15-3 3.19a77.11 77.11 0 0 1-6.4 6 52 52 0 0 1-15.7 9.34 28.7 28.7 0 0 1-4.87 1.25c-.42.06-.85.14-1.28.19l-1.31.12a13.76 13.76 0 0 1-1.66 0 15.62 15.62 0 0 1-1.63-.18 21.42 21.42 0 0 1-5.1-1.6 34.31 34.31 0 0 1-4.1-2.13 61.57 61.57 0 0 1-7.11-5 66.39 66.39 0 0 1-6.31-5.7l3.83-5.06c4.7 2.33 9.51 4.79 14.11 6.56 1.15.43 2.28.82 3.34 1.12a11.59 11.59 0 0 0 2.75.47 3.84 3.84 0 0 0 .39 0c.07 0 .06 0 .37-.08l.7-.12.72-.17c.47-.1 1-.3 1.45-.43s1-.35 1.48-.58a31.51 31.51 0 0 0 5.93-3.33 55.42 55.42 0 0 0 5.73-4.5c1.87-1.62 3.66-3.39 5.42-5.19.88-.9 1.74-1.83 2.57-2.77l1.24-1.41 1.14-1.34Z" style="fill:#ffb573;transform-origin:204.9px 157.853px 0" id="elxcwuiuqoe5i" class="animable"/><path d="M240.21 145.84c.62 8.06-17.54 24.52-17.54 24.52l-16.06-13.92s6.76-7.16 14.36-14.37c5.22-4.95 18.56-4.96 19.24 3.77Z" style="fill:#fff;transform-origin:223.418px 154.543px 0" id="el388lsc9ehwr" class="animable"/><path d="M240.21 145.84c.62 8.06-17.54 24.52-17.54 24.52l-16.06-13.92s6.76-7.16 14.36-14.37c5.22-4.95 18.56-4.96 19.24 3.77Z" style="fill:#91d072;opacity:.4;transform-origin:223.418px 154.543px 0" class="animable" id="ell8lwdbrjbh"/><path d="M232 150c-7.46.68-12.23 6.68-14.32 13.31-.23.74-.43 1.5-.59 2.25l5.56 4.82s8.27-7.49 13.45-14.84c.28-3.49-.71-5.86-4.1-5.54Z" style="opacity:.2;transform-origin:226.617px 160.176px 0" class="animable" id="elctzx893n48"/><path d="m180 157.54-2.75-7-9.38 2.88a45 45 0 0 0 6.72 5.85Z" style="fill:#ffb573;transform-origin:173.935px 154.905px 0" id="elfakp4x66an" class="animable"/><path style="fill:#ffb573;transform-origin:171.045px 149.275px 0" id="elmdolm7dg98p" class="animable" d="m172.55 145.11-7.74 3.1 3.09 5.23 9.38-2.88-4.73-5.45z"/><path style="opacity:.2;transform-origin:200.535px 391.91px 0" class="animable" d="m197.71 385.07-2.39 11.6 8.16 2.08 2.27-11.04-8.04-2.64z" id="elg98wnfcs1th"/><path style="opacity:.2;transform-origin:265.915px 392.58px 0" class="animable" d="M269.6 387.53h-8.46l1.09 10.1h8.46l-1.09-10.1z" id="el7t6mwzlpqyk"/><path d="M274.6 141.93a190.22 190.22 0 0 0-5.38 27.84c-.8 6.55-1.28 12.81-1.58 18.49-.7 13.3-.41 23.44-.81 26.87L221.68 212c-6.14-48.14 5.6-72.94 5.6-72.94a89 89 0 0 1 10.8-1.33q1.15-.08 2.34-.09a167.93 167.93 0 0 1 19.19 1.36c1.21.15 2.43.32 3.62.51 6.05.95 11.37 2.42 11.37 2.42Z" style="fill:#fff;transform-origin:247.251px 176.385px 0" id="elveq8nb350ae" class="animable"/><path d="M274.6 141.93a190.22 190.22 0 0 0-5.38 27.84c-.8 6.55-1.28 12.81-1.58 18.49-.7 13.3-.41 23.44-.81 26.87L221.68 212c-6.14-48.14 5.6-72.94 5.6-72.94a89 89 0 0 1 10.8-1.33q1.15-.08 2.34-.09a167.93 167.93 0 0 1 19.19 1.36c1.21.15 2.43.32 3.62.51 6.05.95 11.37 2.42 11.37 2.42Z" style="fill:#91d072;opacity:.4;transform-origin:247.251px 176.385px 0" class="animable" id="el5pr8lnyu2dl"/><path d="M263.19 154.11a35.67 35.67 0 0 0 5.59 19.56c.13-1.28.28-2.59.44-3.9.6-4.93 1.38-10 2.41-15.18Z" style="opacity:.2;transform-origin:267.409px 163.89px 0" class="animable" id="elggm1kjvb2j"/><path d="M259.22 117.22c-1.65 6.09-3.64 17.32.39 21.74a19.26 19.26 0 0 1-15.21 4.86c-5.3-.49-5.31-4.22-4-6.2 7-1.16 7.18-6.28 6.31-11.16Z" style="fill:#ffb573;transform-origin:249.644px 130.587px 0" id="elfsbpqtx4ov" class="animable"/><path d="m254.13 121-7.39 5.46a19.5 19.5 0 0 1 .35 3.45c2.66-.2 6.47-2.83 6.95-5.57a9.35 9.35 0 0 0 .09-3.34Z" style="opacity:.2;transform-origin:250.489px 125.455px 0" class="animable" id="elksyr4x98kc"/><path d="M245.8 108.11c-2 2.83-7.25-2.38-7.05-7 7.6-1 4-6.57 10.9-5.14 5.74 1.13-1.65 9.03-3.85 12.14Z" style="fill:#263238;transform-origin:245.266px 102.325px 0" id="el5rpzcbze5is" class="animable"/><path d="M264.74 109.94c-2.54 8-3.62 12.82-8.78 16-7.76 4.72-16.85-1.53-16.75-10.13.09-7.74 4.24-19.53 13-20.76a11.45 11.45 0 0 1 12.53 14.89Z" style="fill:#ffb573;transform-origin:252.258px 111.246px 0" id="elahys52mvvxq" class="animable"/><path d="M259.94 117.22a21.56 21.56 0 0 1-.33-6 18 18 0 0 1 1.47-4.53s-4.79-2.83-4.9-6.24c0 0-8.56 2.52-13.13-1.33s-.49-8.3-2.83-10c5.6-.54 7.3 2.86 10.84 2.12s.41-3.23.88-6c10.67 9.19 15.31 4.88 20.49 10.14 3.31 3.36-.17 9.66-.17 9.66s5.28 8.96-12.32 12.18Z" style="fill:#263238;transform-origin:257.039px 101.23px 0" id="eloa3u5tmdfo" class="animable"/><path d="M270.56 104.85s5.24 1.08 5.38-4.41c2.7 5.56-.68 6.43-5.38 4.41Z" style="fill:#263238;transform-origin:273.73px 103.141px 0" id="elgn1fqp7fatt" class="animable"/><path d="M246.92 117.57a6.15 6.15 0 0 0 5.55-1.18.22.22 0 0 0 0-.31.22.22 0 0 0-.3 0 5.82 5.82 0 0 1-5.15 1.08.24.24 0 0 0-.27.16.23.23 0 0 0 .17.25Z" style="fill:#263238;transform-origin:249.641px 116.907px 0" id="elbafai2kt577" class="animable"/><path d="M266.16 118.78a7.94 7.94 0 0 1-5.68 2.2c-2.8-.08-3.37-2.78-1.9-5 1.33-2 4.38-4.33 6.86-3.17s2.56 4.19.72 5.97Z" style="fill:#ffb573;transform-origin:262.614px 116.741px 0" id="ele63k06opvht" class="animable"/><path d="m193.08 392.5 13.81 3.8s17.3-54.53 21.55-84.48c1.13-7.95 2.87-19.11 5.52-31 3.36-15 7.56-31.21 11-43.91 3.64-13.38 6.4-22.84 6.4-22.84L221.68 212s-12.15 66.49-15 92.16c-2.94 26.68-13.6 88.34-13.6 88.34Z" style="fill:#91d072;transform-origin:222.22px 304.15px 0" id="elwxfho5etly" class="animable"/><path d="m193.08 392.5 13.81 3.8s17.3-54.53 21.55-84.48c1.13-7.95 2.87-19.11 5.52-31 3.36-15 7.56-31.21 11-43.91 3.64-13.38 6.4-22.84 6.4-22.84L221.68 212s-12.15 66.49-15 92.16c-2.94 26.68-13.6 88.34-13.6 88.34Z" style="opacity:.3;transform-origin:222.22px 304.15px 0" class="animable" id="elnmvkoo77udk"/><path d="M234 280.81c3.36-15 7.56-31.21 11-43.91l-3.08-6.64c-7.4 8.74-9.38 35.83-7.92 50.55Z" style="opacity:.2;transform-origin:239.276px 255.535px 0" class="animable" id="el7nnpvj0qn1d"/><path d="M237.69 213.11s3.21 72.44 6.78 97c3.91 26.87 13.85 85.59 13.85 85.59h15.49s-5.12-61.79-7.39-88.17c-2.58-30 .41-92.37.41-92.37Z" style="fill:#91d072;transform-origin:255.75px 304.405px 0" id="el7wu8i0b9d3y" class="animable"/><path d="M237.69 213.11s3.21 72.44 6.78 97c3.91 26.87 13.85 85.59 13.85 85.59h15.49s-5.12-61.79-7.39-88.17c-2.58-30 .41-92.37.41-92.37Z" style="opacity:.3;transform-origin:255.75px 304.405px 0" class="animable" id="eltu8gitxukjq"/><path style="fill:#91d072;transform-origin:264.51px 393.11px 0" id="elg99jz89677f" class="animable" d="M256.46 396.01h18.25v-5.45l-20.4-.35 2.15 5.8z"/><path style="fill:#91d072;transform-origin:201.04px 391.73px 0" id="elya44pnpq01i" class="animable" d="m192.12 392.58 15.6 4.3 2.24-5.37-17.77-4.93-.07 6z"/><path d="M251.84 109.11c-.16.66-.65 1.11-1.08 1s-.65-.73-.48-1.39.65-1.11 1.08-1 .64.73.48 1.39Z" style="fill:#263238;transform-origin:251.058px 108.915px 0" id="eltu9iujxg6no" class="animable"/><path d="M244.36 107.23c-.17.66-.65 1.11-1.08 1s-.65-.73-.49-1.4.66-1.11 1.09-1 .65.74.48 1.4Z" style="fill:#263238;transform-origin:243.578px 107.03px 0" id="elrsfh1am04v" class="animable"/><path d="M246.66 108.16a24.38 24.38 0 0 1-4.59 4.86c.9 1.39 3.14 1.25 3.14 1.25Z" style="fill:#ed893e;transform-origin:244.365px 111.217px 0" id="elsn3y7pdp54p" class="animable"/><path d="M254.77 107.28a.4.4 0 0 1-.34-.25 3.2 3.2 0 0 0-2.16-1.92.41.41 0 0 1-.33-.47.4.4 0 0 1 .47-.32 4 4 0 0 1 2.76 2.4.41.41 0 0 1-.21.53.63.63 0 0 1-.19.03Z" style="fill:#263238;transform-origin:253.568px 105.796px 0" id="elenrki7nnec6" class="animable"/><path d="M241.8 103.85a.43.43 0 0 1-.23-.1.4.4 0 0 1 0-.56 4 4 0 0 1 3.35-1.49.41.41 0 0 1 .35.45.42.42 0 0 1-.45.35 3.16 3.16 0 0 0-2.63 1.2.45.45 0 0 1-.39.15Z" style="fill:#263238;transform-origin:243.364px 102.773px 0" id="elfixp6agw7jj" class="animable"/><path d="M259.75 407.62a2.58 2.58 0 0 1-1.63-.43 1.2 1.2 0 0 1-.41-1.06.64.64 0 0 1 .34-.57c.94-.48 3.67 1.2 4 1.39a.2.2 0 0 1 .09.21.19.19 0 0 1-.15.16 10 10 0 0 1-2.24.3Zm-1.26-1.75a.67.67 0 0 0-.26.05c-.05 0-.11.08-.12.24a.81.81 0 0 0 .27.72c.46.39 1.57.45 3 .16a7.94 7.94 0 0 0-2.89-1.17Z" style="fill:#91d072;transform-origin:259.922px 406.551px 0" id="elrlw6oqz7s3b" class="animable"/><path d="M261.92 407.32a.16.16 0 0 1-.1 0c-.87-.48-2.57-2.33-2.39-3.27a.66.66 0 0 1 .64-.53 1.07 1.07 0 0 1 .85.26c1 .8 1.19 3.24 1.2 3.35a.21.21 0 0 1-.09.18.23.23 0 0 1-.11.01Zm-1.71-3.43h-.09c-.26 0-.28.15-.29.2-.11.56 1 2 1.84 2.62a4.83 4.83 0 0 0-1-2.65.7.7 0 0 0-.46-.17Z" style="fill:#91d072;transform-origin:260.768px 405.419px 0" id="el0102kb5sgyys" class="animable"/><path d="M192.77 404c-1.39-.11-3.82-.43-4.49-1.47a1.12 1.12 0 0 1-.1-1 .63.63 0 0 1 .46-.42c1.13-.27 4 2.28 4.28 2.58a.21.21 0 0 1 .05.22.19.19 0 0 1-.2.09Zm-4-2.54h-.06a.24.24 0 0 0-.18.17.74.74 0 0 0 .06.68c.38.59 1.7 1 3.59 1.23-1.18-.96-2.76-2.14-3.42-2.07Z" style="fill:#91d072;transform-origin:190.544px 402.547px 0" id="elsv8w0of2bf8" class="animable"/><path d="M192.62 404c-.76-1.16-2-3.29-1.57-4.45a1.12 1.12 0 0 1 .76-.72.65.65 0 0 1 .62.11c.9.74.6 4.54.56 5a.2.2 0 0 1-.15.17.19.19 0 0 1-.22-.11Zm-.43-4.74a.23.23 0 0 0-.24 0 .75.75 0 0 0-.51.47c-.23.66.22 2 1.21 3.59.05-1.62 0-3.62-.46-4.1Z" style="fill:#91d072;transform-origin:192.016px 401.455px 0" id="elb1yokk1cenk" class="animable"/><path d="M275.85 146.8c1.95 2.75 3.61 5.41 5.31 8.18s3.25 5.57 4.77 8.44a100.63 100.63 0 0 1 7.64 18.36c.23.84.45 1.68.65 2.55.1.43.19.87.28 1.32l.13.66.06.34.08.54a17 17 0 0 1-.61 6.77 43.33 43.33 0 0 1-4.17 9.69 83.78 83.78 0 0 1-5.31 8.26 88.6 88.6 0 0 1-6.07 7.57l-5.2-3.65c2.71-5.43 5.47-11 7.59-16.46.53-1.36 1-2.72 1.41-4.05a24.54 24.54 0 0 0 .92-3.8 6.26 6.26 0 0 0 0-2.52l-.07-.23-.13-.47c-.08-.32-.17-.64-.28-1-.19-.64-.41-1.3-.64-1.95a108 108 0 0 0-7.54-15.84c-1.46-2.63-3-5.21-4.58-7.81s-3.24-5.18-4.81-7.59Z" style="fill:#ffb573;transform-origin:280.078px 183.14px 0" id="el4q6qf150vh3" class="animable"/><path d="M274.6 141.93c7.93 1.6 14.88 21 14.88 21l-16.55 13.48s-5.42-9.86-9.76-19.37c-4.73-10.36 1.83-17.04 11.43-15.11Z" style="fill:#fff;transform-origin:275.539px 159.004px 0" id="elh3ovj2faqi" class="animable"/><path d="M274.6 141.93c7.93 1.6 14.88 21 14.88 21l-16.55 13.48s-5.42-9.86-9.76-19.37c-4.73-10.36 1.83-17.04 11.43-15.11Z" style="fill:#91d072;opacity:.4;transform-origin:275.539px 159.004px 0" class="animable" id="el37p987brebo"/><path style="fill:#91d072;transform-origin:162.37px 176.745px 0;transform:rotate(-74.5deg)" class="animable" d="M154.89 176.25h14.96v.99h-14.96z" id="eldyxn03ink3"/><path style="fill:#91d072;transform-origin:158.045px 192.385px 0;transform:rotate(-74.5deg)" class="animable" d="M154.81 191.89h6.47v.99h-6.47z" id="elr45u2vagq8k"/><rect x="159.93" y="149.19" width="110" height="110" rx="11.87" style="fill:#91d072;transform-origin:214.93px 204.19px 0;transform:rotate(15.7086deg)" class="animable" id="ellxy05ugczas"/><g style="transform-origin:215px 200.5px 0;animation:rotateCenter 2s linear infinite both;animation-delay:0s,1.5s"><path d="M221.55 185.21a4.66 4.66 0 0 1-1.32-.18 5 5 0 0 1-3.45-6.08l4-14.41a4.95 4.95 0 0 1 9.54 2.64l-4 14.41a5 5 0 0 1-4.77 3.62Z" style="fill:#fff;transform-origin:223.546px 173.1px 0" id="elwn04kx01pvh" class="animable"/><path d="M204.32 245.48a2.76 2.76 0 0 1-.8-.11 3 3 0 0 1-2.07-3.65l4-14.4a3 3 0 1 1 5.72 1.58l-4 14.4a3 3 0 0 1-2.85 2.18Z" style="fill:#fff;transform-origin:206.389px 235.081px 0" id="elnzksfwi4yd" class="animable"/><path d="M236.53 193.44a1.48 1.48 0 0 1-.74-2.77l13-7.37a1.49 1.49 0 0 1 2 .56 1.47 1.47 0 0 1-.56 2l-13 7.37a1.53 1.53 0 0 1-.7.21Z" style="fill:#fff;transform-origin:243.007px 188.279px 0" id="elurzzadll8da" class="animable"/><path d="M180.33 227.25a3.46 3.46 0 0 1-1.71-6.48l13-7.37a3.47 3.47 0 0 1 3.42 6l-13 7.37a3.52 3.52 0 0 1-1.71.48Z" style="fill:#fff;transform-origin:186.676px 220.174px 0" id="eltdyqzxp8vsh" class="animable"/><path d="M253.25 216.78a2 2 0 0 1-.53-.07l-14.4-4a2 2 0 0 1 1.05-3.82l14.41 4a2 2 0 0 1-.53 3.89Z" style="fill:#fff;transform-origin:246.123px 212.827px 0" id="elhqe9j91qwh5" class="animable"/><path d="M191 201.52a3.91 3.91 0 0 1-1.06-.14l-14.4-4a4 4 0 0 1 2.11-7.63l14.4 4a4 4 0 0 1-1.05 7.77Z" style="fill:#fff;transform-origin:183.944px 195.619px 0" id="elz2v5eccb08" class="animable"/><path d="M234.52 241.26a2.48 2.48 0 0 1-2.15-1.25L225 227a2.47 2.47 0 1 1 4.3-2.43l7.36 13a2.46 2.46 0 0 1-.93 3.37 2.42 2.42 0 0 1-1.21.32Z" style="fill:#fff;transform-origin:230.822px 232.267px 0" id="elu9ufnqy2l6a" class="animable"/><path d="M202.7 187a4.45 4.45 0 0 1-3.88-2.26l-7.36-13a4.45 4.45 0 1 1 7.75-4.39l7.36 13a4.44 4.44 0 0 1-1.68 6.06 4.36 4.36 0 0 1-2.19.59Z" style="fill:#fff;transform-origin:199.015px 176.045px 0" id="elritz10c2ohp" class="animable"/></g><path d="m276.41 213.89-8.58-.31 4.15 10s7.37-1.36 7.09-5.34Z" style="fill:#ffb573;transform-origin:273.454px 218.58px 0" id="elxoqthwkw2e" class="animable"/><path style="fill:#ffb573;transform-origin:267.035px 219.455px 0" id="elodqaku4kaej" class="animable" d="m262.08 217.7 2.07 7.63 7.84-1.77-4.16-9.98-5.75 4.12z"/></g><defs><filter id="active" height="200%"><feMorphology in="SourceAlpha" result="DILATED" operator="dilate" radius="2"/><feFlood flood-color="#32DFEC" flood-opacity="1" result="PINK"/><feComposite in="PINK" in2="DILATED" operator="in" result="OUTLINE"/><feMerge><feMergeNode in="OUTLINE"/><feMergeNode in="SourceGraphic"/></feMerge></filter><filter id="hover" height="200%"><feMorphology in="SourceAlpha" result="DILATED" operator="dilate" radius="2"/><feFlood flood-color="red" flood-opacity=".5" result="PINK"/><feComposite in="PINK" in2="DILATED" operator="in" result="OUTLINE"/><feMerge><feMergeNode in="OUTLINE"/><feMergeNode in="SourceGraphic"/></feMerge><feColorMatrix values="0 0 0 0 0 0 1 0 0 0 0 0 0 0 0 0 0 0 1 0"/></filter></defs></svg>