<svg xmlns="http://www.w3.org/2000/svg" height="103.174" width="103.174"><g fill="#fff"><path d="M0 51.587C0 23.096 23.096 0 51.587 0c28.491 0 51.587 23.096 51.587 51.587 0 28.491-23.096 51.587-51.587 51.587C23.096 103.174 0 80.078 0 51.587zm51.587 47.57c26.272 0 47.57-21.298 47.57-47.57 0-26.272-21.298-47.57-47.57-47.57-26.272 0-47.57 21.298-47.57 47.57 0 26.272 21.298 47.57 47.57 47.57z" data-fill-palette-color="accent" stroke="transparent"/><circle cx="51.587" cy="51.587" data-fill-palette-color="accent" r="51.071"/></g><svg viewBox="0 0 57.131 49.99" height="49.99" width="57.131" transform="translate(23.021 26.592)"><svg xmlns="http://www.w3.org/2000/svg" xmlns:xlink="http://www.w3.org/1999/xlink" viewBox="0 0 100 87.5" style="enable-background:new 0 0 100 87.5" xml:space="preserve" width="57.131" height="49.99" class="icon-a-0" data-fill-palette-color="quaternary"><path d="M12.5 6.25a6.246 6.246 0 0 1-6.25 6.25A6.246 6.246 0 0 1 0 6.25 6.246 6.246 0 0 1 6.25 0a6.246 6.246 0 0 1 6.25 6.25zM37.5 81.25c0 3.455-2.795 6.25-6.25 6.25S25 84.705 25 81.25 27.795 75 31.25 75s6.25 2.795 6.25 6.25zM37.5 31.25c0 3.455-2.795 6.25-6.25 6.25S25 34.705 25 31.25 27.795 25 31.25 25s6.25 2.795 6.25 6.25zM62.5 56.25c0 3.455-2.795 6.25-6.25 6.25S50 59.705 50 56.25 52.795 50 56.25 50s6.25 2.795 6.25 6.25zM25 0h75v12.5H25zM50 25h50v12.5H50zM50 75h50v12.5H50zM75 50h25v12.5H75z" fill="#669e4b" data-fill-palette-color="quaternary"/></svg></svg></svg>